<?xml version="1.0" encoding="utf-8"?>
<!-- Generator: Adobe Illustrator 18.0.0, SVG Export Plug-In . SVG Version: 6.00 Build 0)  -->
<!DOCTYPE svg PUBLIC "-//W3C//DTD SVG 1.1//EN" "http://www.w3.org/Graphics/SVG/1.1/DTD/svg11.dtd">
<svg version="1.1" id="Layer_1" xmlns="http://www.w3.org/2000/svg" xmlns:xlink="http://www.w3.org/1999/xlink" x="0px" y="0px"
	 viewBox="0 0 792 792" enable-background="new 0 0 792 792" xml:space="preserve">
<g>
	<path fill="#FFFFFF" d="M556,564c-128,0-256.1,0-384.2,0c0-128,0-256,0-384.1c128,0,256.1,0,384.2,0C556,307.8,556,435.9,556,564z
		 M362.9,215.6c-84.4-0.1-153.4,68.4-153.5,152.8c-0.2,84.6,67.2,153.2,151.5,154c86.3,0.8,155.2-67.8,155.3-153.1
		C516.3,284.3,447.8,215.7,362.9,215.6z"/>
	<path d="M362.9,215.6c84.9,0.1,153.4,68.8,153.3,153.7c-0.1,85.3-69.1,153.9-155.3,153.1c-84.3-0.8-151.7-69.4-151.5-154
		C209.5,284,278.5,215.5,362.9,215.6z M232,369.1c0,71.8,58.5,130.6,130,130.6c73.1,0,132-58.4,131.7-130.8
		c-0.3-72.2-58.8-130.7-130.8-130.7C290.6,238.2,232,296.9,232,369.1z"/>
	<path fill="#FFFFFF" d="M232,369.1c0-72.3,58.6-130.9,130.9-130.9c72.1,0,130.5,58.4,130.8,130.7c0.3,72.4-58.6,130.8-131.7,130.8
		C290.5,499.7,232,440.9,232,369.1z M396.1,314l0.1,0.1c0-4.7,0-9.4,0-14.1c-23.8,0-47,0-70.6,0c0,4.7,0,9.3,0,14.2
		c-9.7,0-19,0-28.6,0c0,9.4,0,18.3,0,27.7c-4.8,0-9.4,0-13.9,0c0,23.7,0,47,0,70.6c4.7,0,9.2,0,14.1,0c0,4.6,0,8.9,0,13.6
		c9.7,0,19,0,28.6,0c0,4.9,0,9.3,0,13.8c18.8,0,37.4,0,56.2,0c0-4.7,0-9.2,0-14c4.8,0,9.4,0,14.3,0c0-5,0-9.5,0-14.3
		c9.6,0,18.8,0,28.4,0c0-4.6,0-8.9,0-13.6c5,0,9.5,0,14.3,0c0-4.9,0-9.3,0-14.2c4.8,0,9.4,0,13.9,0c0-14.1,0-27.8,0-41.9
		c-4.7,0-9.3,0-14.2,0c0-4.7,0-9,0-13.6c-4.9,0-9.3,0-14.2,0c0-4.8,0-9.4,0-14.2C414.8,314,405.5,314,396.1,314z"/>
	<path d="M396.1,314c9.4,0,18.7,0,28.5,0c0,4.9,0,9.4,0,14.2c4.9,0,9.3,0,14.2,0c0,4.6,0,8.9,0,13.6c4.9,0,9.5,0,14.2,0
		c0,14.1,0,27.8,0,41.9c-4.6,0-9.1,0-13.9,0c0,4.9,0,9.3,0,14.2c-4.8,0-9.4,0-14.3,0c0,4.7,0,9,0,13.6c-9.6,0-18.8,0-28.4,0
		c0,4.8,0,9.4,0,14.3c-4.9,0-9.5,0-14.3,0c0,4.9,0,9.3,0,14c-18.8,0-37.4,0-56.2,0c0-4.5,0-8.9,0-13.8c-9.6,0-18.9,0-28.6,0
		c0-4.7,0-9,0-13.6c-4.9,0-9.3,0-14.1,0c0-23.6,0-46.9,0-70.6c4.5,0,9.1,0,13.9,0c0-9.4,0-18.3,0-27.7c9.6,0,18.9,0,28.6,0
		c0-4.9,0-9.5,0-14.2c23.6,0,46.8,0,70.6,0c0,4.7,0,9.4,0,14.1c-4.7,0-9.4,0-14.5,0c0,4.7,0,9,0,13.6c-4.9,0-9.3,0-14.2,0
		c0,4.8,0,9.4,0,14.3c-9.7,0-19,0-28.6,0c0,9.6,0,18.8,0,28.4c-4.6,0-8.9,0-13.1,0c0,9.5,0,18.5,0,27.5c9.5,0,18.7,0,28.3,0
		c0-4.7,0-9.3,0-14.2c4.7,0,9,0,13.6,0c0-4.6,0-8.8,0-13.4c9.6,0,18.9,0,28.3,0C396.1,351.3,396.1,332.6,396.1,314z"/>
	<path fill="#FFFFFF" d="M396.1,314c0,18.6,0,37.2,0,56.3c-9.4,0-18.7,0-28.3,0c0,4.6,0,8.8,0,13.4c-4.6,0-8.9,0-13.6,0
		c0,4.9,0,9.5,0,14.2c-9.6,0-18.8,0-28.3,0c0-9,0-18,0-27.5c4.2,0,8.5,0,13.1,0c0-9.6,0-18.8,0-28.4c9.6,0,18.9,0,28.6,0
		c0-4.9,0-9.5,0-14.3c4.9,0,9.3,0,14.2,0c0-4.6,0-8.9,0-13.6c5.1,0,9.8,0,14.5,0C396.2,314.1,396.1,314,396.1,314z"/>
</g>
</svg>
